<svg xmlns="http://www.w3.org/2000/svg" xmlns:xlink="http://www.w3.org/1999/xlink" width="32" height="32" preserveAspectRatio="xMidYMid meet" viewBox="0 0 32 32" style="-ms-transform: rotate(360deg); -webkit-transform: rotate(360deg); transform: rotate(360deg);"><path d="M8 9H4a2 2 0 0 0-2 2v12h2v-5h4v5h2V11a2 2 0 0 0-2-2zm-4 7v-5h4v5z" fill="#fff"/><path d="M22 11h3v10h-3v2h8v-2h-3V11h3V9h-8v2z" fill="#fff"/><path d="M14 23h-2V9h6a2 2 0 0 1 2 2v5a2 2 0 0 1-2 2h-4zm0-7h4v-5h-4z" fill="#fff"/><rect x="0" y="0" width="32" height="32" fill="rgba(0, 0, 0, 0)" /></svg>