<svg xmlns="http://www.w3.org/2000/svg" xmlns:xlink="http://www.w3.org/1999/xlink" width="24" height="24" preserveAspectRatio="xMidYMid meet" viewBox="0 0 24 24" style="-ms-transform: rotate(360deg); -webkit-transform: rotate(360deg); transform: rotate(360deg);"><path d="M22.351 8.019l-6.37-6.37a5.63 5.63 0 0 0-7.962 0l-6.37 6.37a5.63 5.63 0 0 0 0 7.962l6.37 6.37a5.63 5.63 0 0 0 7.962 0l6.37-6.37a5.63 5.63 0 0 0 0-7.962zM12 15.953a3.953 3.953 0 1 1 0-7.906a3.953 3.953 0 0 1 0 7.906z" fill="#626262"/><rect x="0" y="0" width="24" height="24" fill="rgba(0, 0, 0, 0)" /></svg>